<svg width="24" height="24" viewBox="0 0 24 24" fill="none" xmlns="http://www.w3.org/2000/svg">
<g clip-path="url(#clip0_156_38627)">
<rect width="24" height="24" rx="12" fill="#FF4E4E"/>
<path d="M24 0H0V24H24V0Z" fill="#003399"/>
<path d="M12.0024 2.66669L11.7028 3.58802H10.7344L11.5179 4.15735L11.2188 5.07869L12.0024 4.50935L12.7859 5.07869L12.4868 4.15735L13.2704 3.58802H12.3019L12.0024 2.66669Z" fill="#FFCC00"/>
<path d="M12.3019 19.588L12.0024 18.6667L11.7028 19.588H10.7344L11.5179 20.1574L11.2188 21.0787L12.0024 20.5094L12.7859 21.0787L12.4868 20.1574L13.2704 19.588H12.3019Z" fill="#FFCC00"/>
<path d="M4.00238 12.5094L4.78593 13.0787L4.48682 12.1574L5.27038 11.588H4.30193L4.00238 10.6667L3.70282 11.588H2.73438L3.51793 12.1574L3.21882 13.0787L4.00238 12.5094Z" fill="#FFCC00"/>
<path d="M8.00238 3.73871L7.70282 4.6596H6.73438L7.51793 5.22938L7.21882 6.15071L8.00238 5.58093L8.78593 6.15071L8.48682 5.22938L9.27038 4.6596H8.30193L8.00238 3.73871Z" fill="#FFCC00"/>
<path d="M5.07313 6.66669L4.77358 7.58802H3.80469L4.58869 8.15735L4.28913 9.07869L5.07313 8.50935L5.85669 9.07869L5.55713 8.15735L6.34113 7.58802H5.37224L5.07313 6.66669Z" fill="#FFCC00"/>
<path d="M5.37224 15.588L5.07313 14.6667L4.77358 15.588H3.80469L4.58869 16.1574L4.28913 17.0787L5.07313 16.5094L5.85669 17.0787L5.55713 16.1574L6.34113 15.588H5.37224Z" fill="#FFCC00"/>
<path d="M8.30193 18.516L8.00238 17.5947L7.70282 18.516H6.73438L7.51793 19.0858L7.21882 20.0071L8.00238 19.4373L8.78593 20.0071L8.48682 19.0858L9.27038 18.516H8.30193Z" fill="#FFCC00"/>
<path d="M21.2704 11.588H20.3019L20.0024 10.6667L19.7028 11.588H18.7344L19.5179 12.1574L19.2188 13.0787L20.0024 12.5094L20.7859 13.0787L20.4868 12.1574L21.2704 11.588Z" fill="#FFCC00"/>
<path d="M16.0024 3.73871L15.7028 4.6596H14.7344L15.5179 5.22938L15.2188 6.15071L16.0024 5.58093L16.7859 6.15071L16.4868 5.22938L17.2704 4.6596H16.3019L16.0024 3.73871Z" fill="#FFCC00"/>
<path d="M18.4481 8.15735L18.1485 9.07869L18.9321 8.50935L19.7161 9.07869L19.4165 8.15735L20.2005 7.58802H19.2316L18.9321 6.66669L18.633 7.58802H17.6641L18.4481 8.15735Z" fill="#FFCC00"/>
<path d="M19.2316 15.588L18.9321 14.6667L18.633 15.588H17.6641L18.4481 16.1574L18.1485 17.0787L18.9321 16.5094L19.7161 17.0787L19.4165 16.1574L20.2005 15.588H19.2316Z" fill="#FFCC00"/>
<path d="M16.3019 18.516L16.0024 17.5947L15.7028 18.516H14.7344L15.5179 19.0858L15.2188 20.0071L16.0024 19.4373L16.7859 20.0071L16.4868 19.0858L17.2704 18.516H16.3019Z" fill="#FFCC00"/>
</g>
<defs>
<clipPath id="clip0_156_38627">
<rect width="24" height="24" rx="12" fill="white"/>
</clipPath>
</defs>
</svg>
