<svg width="24" height="24" viewBox="0 0 40 40" fill="none" xmlns="http://www.w3.org/2000/svg">
<g clip-path="url(#clip0_306_17164)">
<path d="M50 0H-10V40H50V0Z" fill="#B22234"/>
<path d="M-10 4.61536H50.0586H-10ZM50.0586 10.7692H-10H50.0586ZM-10 16.9231H50.0586H-10ZM50.0586 23.0769H-10H50.0586ZM-10 29.2307H50.0586H-10ZM50.0586 35.3846H-10H50.0586Z" fill="black"/>
<path d="M-10 4.61536H50.0586M50.0586 10.7692H-10M-10 16.9231H50.0586M50.0586 23.0769H-10M-10 29.2307H50.0586M50.0586 35.3846H-10" stroke="white" stroke-width="2.73525"/>
<path d="M20.4 0H-10V21.7093H20.4V0Z" fill="#3C3B6E"/>
<path d="M0.135192 3.07751L0.85862 5.304L-1.03534 3.92796H1.30572L-0.588236 5.304L0.135192 3.07751Z" fill="white"/>
<path d="M0.135375 7.38519L0.858803 9.61168L-1.03516 8.23563H1.30591L-0.588053 9.61168L0.135375 7.38519Z" fill="white"/>
<path d="M0.135375 11.6927L0.858803 13.9192L-1.03516 12.5431H1.30591L-0.588053 13.9192L0.135375 11.6927Z" fill="white"/>
<path d="M0.135375 16.0004L0.858803 18.2269L-1.03516 16.8509H1.30591L-0.588053 18.2269L0.135375 16.0004Z" fill="white"/>
<path d="M2.66644 0.92395L3.38987 3.15043L1.49591 1.77439H3.83697L1.94301 3.15043L2.66644 0.92395Z" fill="white"/>
<path d="M2.66644 5.23169L3.38987 7.45817L1.49591 6.08213H3.83697L1.94301 7.45817L2.66644 5.23169Z" fill="white"/>
<path d="M2.66644 9.53925L3.38987 11.7657L1.49591 10.3897H3.83697L1.94301 11.7657L2.66644 9.53925Z" fill="white"/>
<path d="M2.66644 13.847L3.38987 16.0735L1.49591 14.6974H3.83697L1.94301 16.0735L2.66644 13.847Z" fill="white"/>
<path d="M2.66644 18.1544L3.38987 20.3809L1.49591 19.0049H3.83697L1.94301 20.3809L2.66644 18.1544Z" fill="white"/>
<path d="M5.19965 3.07727L5.92307 5.30375L4.02911 3.92771H6.37018L4.47622 5.30375L5.19965 3.07727Z" fill="white"/>
<path d="M5.19965 7.38501L5.92307 9.61149L4.02911 8.23545H6.37018L4.47622 9.61149L5.19965 7.38501Z" fill="white"/>
<path d="M5.19965 11.6926L5.92307 13.919L4.02911 12.543H6.37018L4.47622 13.919L5.19965 11.6926Z" fill="white"/>
<path d="M5.19965 16.0003L5.92307 18.2268L4.02911 16.8507H6.37018L4.47622 18.2268L5.19965 16.0003Z" fill="white"/>
<path d="M7.73462 0.923523L8.45805 3.15001L6.56409 1.77396H8.90515L7.01119 3.15001L7.73462 0.923523Z" fill="white"/>
<path d="M7.73444 5.23151L8.45786 7.45799L6.5639 6.08195H8.90497L7.01101 7.45799L7.73444 5.23151Z" fill="white"/>
<path d="M7.73444 9.539L8.45786 11.7655L6.5639 10.3894H8.90497L7.01101 11.7655L7.73444 9.539Z" fill="white"/>
<path d="M7.73444 13.8468L8.45786 16.0733L6.5639 14.6972H8.90497L7.01101 16.0733L7.73444 13.8468Z" fill="white"/>
<path d="M7.73462 18.1543L8.45805 20.3808L6.56409 19.0047H8.90515L7.01119 20.3808L7.73462 18.1543Z" fill="white"/>
<path d="M10.2661 3.07758L10.9895 5.30406L9.09552 3.92802H11.4366L9.54262 5.30406L10.2661 3.07758Z" fill="white"/>
<path d="M10.2661 7.38531L10.9895 9.6118L9.09552 8.23576H11.4366L9.54262 9.6118L10.2661 7.38531Z" fill="white"/>
<path d="M10.2661 11.6931L10.9895 13.9195L9.09552 12.5435H11.4366L9.54262 13.9195L10.2661 11.6931Z" fill="white"/>
<path d="M10.2661 16.0009L10.9895 18.2273L9.09552 16.8513H11.4366L9.54262 18.2273L10.2661 16.0009Z" fill="white"/>
<path d="M12.7993 0.923279L13.5227 3.14976L11.6287 1.77372H13.9698L12.0758 3.14976L12.7993 0.923279Z" fill="white"/>
<path d="M12.7994 5.23126L13.5229 7.45775L11.6289 6.0817H13.97L12.076 7.45775L12.7994 5.23126Z" fill="white"/>
<path d="M12.7994 9.53876L13.5229 11.7652L11.6289 10.3892H13.97L12.076 11.7652L12.7994 9.53876Z" fill="white"/>
<path d="M12.7994 13.8466L13.5229 16.073L11.6289 14.697H13.97L12.076 16.073L12.7994 13.8466Z" fill="white"/>
<path d="M12.7994 18.1543L13.5229 20.3808L11.6289 19.0047H13.97L12.076 20.3808L12.7994 18.1543Z" fill="white"/>
<path d="M15.3344 3.07758L16.0578 5.30406L14.1639 3.92802H16.5049L14.611 5.30406L15.3344 3.07758Z" fill="white"/>
<path d="M15.3344 7.38531L16.0578 9.6118L14.1639 8.23576H16.5049L14.611 9.6118L15.3344 7.38531Z" fill="white"/>
<path d="M15.3344 11.6931L16.0578 13.9195L14.1639 12.5435H16.5049L14.611 13.9195L15.3344 11.6931Z" fill="white"/>
<path d="M15.3344 16.0009L16.0578 18.2273L14.1639 16.8513H16.5049L14.611 18.2273L15.3344 16.0009Z" fill="white"/>
<path d="M17.8676 0.923279L18.591 3.14976L16.6971 1.77372H19.0381L17.1442 3.14976L17.8676 0.923279Z" fill="white"/>
<path d="M17.8676 5.23102L18.591 7.4575L16.6971 6.08146H19.0381L17.1442 7.4575L17.8676 5.23102Z" fill="white"/>
<path d="M17.8676 9.53857L18.591 11.7651L16.6971 10.389H19.0381L17.1442 11.7651L17.8676 9.53857Z" fill="white"/>
<path d="M17.8676 13.8463L18.591 16.0728L16.6971 14.6968H19.0381L17.1442 16.0728L17.8676 13.8463Z" fill="white"/>
<path d="M17.8676 18.1541L18.591 20.3805L16.6971 19.0045H19.0381L17.1442 20.3805L17.8676 18.1541Z" fill="white"/>
</g>
<defs>
<clipPath id="clip0_306_17164">
<rect width="40" height="40" rx="20" fill="white"/>
</clipPath>
</defs>
</svg>
